<svg width="7" height="13" viewBox="0 0 7 13" fill="none" xmlns="http://www.w3.org/2000/svg">
<path d="M3.78218 2.43037C3.78218 3.06766 3.80312 3.59395 3.85887 4.02406C3.9144 4.45253 4.00644 4.80289 4.15955 5.07802C4.31705 5.36105 4.53488 5.55651 4.82008 5.67622C5.09659 5.79228 5.42344 5.83168 5.79435 5.83168C6.02895 5.83168 6.26303 5.86451 6.44913 5.91995C6.53717 5.94618 6.60925 5.97592 6.66361 6.00622C6.54918 6.03705 6.37063 6.05943 6.12916 6.05943C5.70257 6.05943 5.32253 6.144 4.99654 6.33382C4.66942 6.5243 4.41445 6.81046 4.22244 7.18432C3.84491 7.91939 3.69998 9.01556 3.71757 10.4863C3.71753 11.2703 3.68611 11.8635 3.63691 12.2675C3.56766 11.8965 3.50287 11.3597 3.45335 10.6523C3.34147 9.05409 3.11935 7.91684 2.7158 7.1745C2.51089 6.79758 2.25489 6.51406 1.93632 6.32682C1.61796 6.1397 1.25534 6.05943 0.8544 6.05943C0.598212 6.05943 0.421463 6.03419 0.315568 6.00138C0.364141 5.97401 0.43218 5.94589 0.519964 5.92053C0.711337 5.86524 0.96618 5.83168 1.24208 5.83168C1.5853 5.83168 1.89449 5.78312 2.16473 5.64412C2.43931 5.50289 2.65086 5.28017 2.81792 4.97243C3.14096 4.37739 3.3182 3.4212 3.47597 1.98248L3.47611 1.98114C3.53898 1.37774 3.61078 0.927187 3.68274 0.620636M3.78218 2.43037C3.78218 2.43029 3.78218 2.4302 3.78218 2.43012H4.03218L3.78218 2.43061C3.78218 2.43053 3.78218 2.43045 3.78218 2.43037ZM3.78218 2.43037C3.78071 1.68497 3.74821 1.11547 3.69735 0.724711C3.6926 0.688192 3.68772 0.65351 3.68274 0.620636M3.68274 0.620636C3.69427 0.571534 3.7058 0.526126 3.71729 0.484376C3.76013 0.328853 3.79696 0.245438 3.81928 0.211061C3.82096 0.208465 3.82227 0.206614 3.82317 0.205401M3.68274 0.620636C3.66094 0.476747 3.63718 0.367477 3.61344 0.290194C3.59879 0.242501 3.58637 0.214434 3.57861 0.200435C3.57745 0.198328 3.5765 0.196751 3.57581 0.195643M3.82317 0.205401C3.8242 0.20427 3.82469 0.203612 3.82468 0.203566C3.82467 0.20352 3.82416 0.204085 3.82317 0.205401ZM3.82317 0.205401C3.81937 0.20962 3.80818 0.220425 3.78814 0.230616C3.73467 0.257798 3.66551 0.256718 3.6117 0.2253C3.59075 0.213071 3.57955 0.200493 3.57581 0.195643M3.57581 0.195643C3.57487 0.194158 3.57438 0.193516 3.57436 0.193567C3.57435 0.193617 3.57482 0.194359 3.57581 0.195643Z" fill="#EDEDED" stroke="black" stroke-width="0.5"/>
</svg>
