<svg width="14" height="26" viewBox="0 0 14 26" fill="none" xmlns="http://www.w3.org/2000/svg">
<path d="M7.81435 4.86049C7.81436 6.13149 7.85623 7.17159 7.96566 8.01599C8.07488 8.85873 8.25338 9.52382 8.53755 10.0345C8.82611 10.553 9.21961 10.9048 9.73692 11.1219C10.2455 11.3354 10.861 11.4134 11.5887 11.4134C12.0788 11.4134 12.5713 11.4816 12.9696 11.6003C13.1687 11.6596 13.3384 11.7298 13.4706 11.8064C13.6049 11.8842 13.6861 11.9604 13.7272 12.0251C13.7469 12.0562 13.7496 12.0727 13.7499 12.0759C13.75 12.0766 13.7505 12.0752 13.7494 12.0773C13.7429 12.0898 13.7061 12.1369 13.5778 12.1913C13.3267 12.2978 12.8771 12.3689 12.2583 12.3689C11.4382 12.3689 10.7241 12.5313 10.1189 12.8837C9.51256 13.2367 9.03328 13.7702 8.66726 14.4829C7.9417 15.8956 7.64993 18.0356 7.68513 20.971C7.68509 22.5996 7.61767 23.8261 7.51134 24.6502C7.45796 25.0639 7.396 25.3661 7.33182 25.5639C7.32381 25.5886 7.316 25.6109 7.30844 25.6311C7.23673 25.4713 7.15817 25.2114 7.07945 24.8397C6.91882 24.0811 6.76857 22.9116 6.65731 21.3222C6.43382 18.1296 5.99143 15.9023 5.21195 14.4684C4.81908 13.7457 4.3362 13.2161 3.74597 12.8692C3.15594 12.5224 2.47686 12.3689 1.7088 12.3689C1.08987 12.3689 0.662592 12.2977 0.425012 12.1928C0.306102 12.1403 0.265916 12.093 0.255077 12.073C0.254944 12.0728 0.254798 12.0725 0.25464 12.0722C0.251079 12.0659 0.242006 12.0497 0.266338 11.9986C0.289942 11.949 0.350267 11.8799 0.475818 11.804C0.598559 11.7297 0.765241 11.6602 0.970538 11.6009C1.38071 11.4824 1.91456 11.4134 2.48416 11.4134C3.14898 11.4134 3.72323 11.3189 4.21511 11.0659C4.71134 10.8107 5.10112 10.4058 5.41614 9.82557C6.03507 8.68549 6.38705 6.82269 6.70342 3.9377L6.70356 3.93636C6.84993 2.53168 7.02153 1.52702 7.19356 0.902371C7.26921 0.627684 7.34075 0.44265 7.4017 0.331705M7.81435 4.86049C7.81435 4.86041 7.81435 4.86033 7.81435 4.86024H8.06435L7.81435 4.86073C7.81435 4.86065 7.81435 4.86057 7.81435 4.86049ZM7.81435 4.86049C7.81142 3.36421 7.74624 2.21343 7.64261 1.41716C7.59067 1.01804 7.53006 0.716017 7.46585 0.506979C7.44354 0.43435 7.42187 0.376532 7.4017 0.331705M7.4017 0.331705C7.41101 0.314758 7.42007 0.299539 7.42887 0.285994C7.45428 0.24685 7.46867 0.235569 7.4685 0.235347C7.46844 0.23527 7.46665 0.236512 7.46297 0.238382C7.43092 0.254675 7.38279 0.254172 7.34944 0.234705C7.3449 0.232053 7.34274 0.230265 7.34267 0.230341C7.34251 0.230528 7.35501 0.242007 7.3759 0.279705C7.38416 0.294604 7.39278 0.311885 7.4017 0.331705ZM7.23397 25.7779C7.23396 25.7778 7.23458 25.7771 7.23584 25.776C7.23462 25.7773 7.23399 25.7779 7.23397 25.7779Z" fill="#EDEDED" stroke="black" stroke-width="0.5"/>
</svg>
