<svg width="177" height="65" viewBox="0 0 177 65" fill="none" xmlns="http://www.w3.org/2000/svg">
<path d="M2.22391 7.01551C1.83065 7.01551 1.48429 7.14573 1.16489 7.4134C0.864409 7.66498 0.718294 7.9562 0.718294 8.30357V23.7194C0.718294 24.0875 0.864409 24.389 1.16469 24.6406C1.48429 24.9085 1.83065 25.0385 2.22391 25.0385H5.95325C6.34631 25.0385 6.69288 24.9083 7.01268 24.6406C7.31296 24.3888 7.45907 24.0875 7.45907 23.7194V8.30357C7.45907 7.9562 7.31296 7.66498 7.01268 7.4134C6.69268 7.14573 6.34631 7.01551 5.95325 7.01551H2.22391ZM5.95325 25.7568H2.22391C1.6628 25.7568 1.1512 25.5666 0.703401 25.191C0.236681 24.8002 0 24.3049 0 23.7194V8.30357C0 7.73844 0.236681 7.2538 0.703401 6.86276C1.1512 6.48741 1.66301 6.29722 2.22391 6.29722H5.95325C6.51396 6.29722 7.02536 6.48741 7.47376 6.86276C7.94068 7.2538 8.17737 7.73864 8.17737 8.30357V23.7194C8.17737 24.3049 7.94068 24.8 7.47396 25.1912C7.02576 25.5666 6.51396 25.7568 5.95325 25.7568Z" fill="white"/>
<path d="M21.3379 11.0835C22.887 11.0835 23.9468 11.6313 24.4874 12.7115C24.8267 13.3901 24.9916 14.5202 24.9916 16.1669V23.7193C24.9916 24.0816 25.1161 24.3863 25.3721 24.6506C25.6253 24.9116 25.9325 25.0386 26.3108 25.0386H29.5742C29.9339 25.0386 30.2372 24.9102 30.5016 24.6461C30.7653 24.3823 30.8935 24.079 30.8935 23.7193V14.9857C30.8935 12.0197 30.3354 9.83769 29.2349 8.50053C28.0261 7.01966 25.9655 6.26937 23.1096 6.26937C21.1294 6.26937 19.0498 7.11164 16.9283 8.77263L16.3479 9.22727V8.05494C16.3479 7.69509 16.2195 7.39179 15.9556 7.12754C15.6918 6.86409 15.3883 6.73568 15.0286 6.73568H11.7652C11.4052 6.73568 11.1021 6.86389 10.8382 7.12774C10.5744 7.39179 10.446 7.69509 10.446 8.05494V23.7193C10.446 24.0792 10.5744 24.3825 10.8382 24.6466C11.1021 24.9102 11.4054 25.0386 11.7652 25.0386H15.0286C15.3883 25.0386 15.6916 24.9102 15.956 24.6461C16.2195 24.3823 16.3479 24.079 16.3479 23.7193V16.0115C16.3479 12.7875 18.0735 11.0835 21.3379 11.0835ZM29.5742 25.7569H26.3108C25.736 25.7569 25.2466 25.5528 24.8565 25.1505C24.4695 24.7512 24.2733 24.2698 24.2733 23.7193V16.1669C24.2733 14.6558 24.1294 13.6012 23.845 13.0329C23.4304 12.2045 22.6103 11.8018 21.3379 11.8018C18.4633 11.8018 17.0662 13.1788 17.0662 16.0115V23.7193C17.0662 24.2712 16.8635 24.754 16.464 25.1541C16.0631 25.5542 15.5805 25.7569 15.0286 25.7569H11.7652C11.213 25.7569 10.7301 25.554 10.3304 25.1543C9.93033 24.7544 9.72766 24.2716 9.72766 23.7193V8.05494C9.72766 7.50248 9.93033 7.01966 10.3304 6.61996C10.7299 6.22006 11.2128 6.01739 11.7652 6.01739H15.0286C15.5807 6.01739 16.0633 6.22006 16.4636 6.61976C16.7965 6.95325 16.9927 7.34369 17.0491 7.78364C19.1082 6.30177 21.1443 5.55107 23.1096 5.55107C26.1917 5.55107 28.4395 6.39032 29.7904 8.04528C30.9988 9.51326 31.6118 11.8487 31.6118 14.9857V23.7193C31.6118 24.2712 31.4093 24.7538 31.0096 25.1541C30.6089 25.5542 30.1261 25.7569 29.5742 25.7569Z" fill="white"/>
<path d="M43.3737 25.9882C37.1989 25.9882 33.6456 24.1652 32.7134 20.5182C32.6716 20.3526 32.651 20.166 32.651 19.9587C32.651 18.9228 33.2105 18.4048 34.3293 18.4048H37.9661C38.401 18.4048 38.7943 18.6223 39.1469 19.0575C39.6025 19.6789 40.0173 20.0937 40.3902 20.3006C41.1564 20.7356 42.3064 20.9533 43.84 20.9533C44.5028 20.9533 45.1454 20.8708 45.7671 20.7046C46.6577 20.4977 47.1034 20.1763 47.1034 19.7411C47.1034 19.3682 46.7305 19.1094 45.9846 18.9641C45.9225 18.9437 45.7359 18.9228 45.4249 18.9021L39.7066 18.4048C37.7586 18.2389 36.2047 17.6897 35.0444 16.7575C33.7181 15.6803 33.0552 14.2196 33.0552 12.375C33.0552 7.96163 36.4633 5.75502 43.2807 5.75502C45.5803 5.75502 47.5591 6.06577 49.2171 6.68746C51.4337 7.53717 52.7703 8.8838 53.2264 10.7279C53.2676 10.8521 53.2883 11.0284 53.2883 11.2562C53.2883 12.2925 52.7182 12.8102 51.5793 12.8102H48.1291C47.7145 12.8102 47.3415 12.6135 47.0103 12.2197C46.513 11.6398 46.1088 11.2669 45.7983 11.1009C45.1144 10.6865 44.182 10.4792 43.0008 10.4792C40.9701 10.4792 39.9549 10.8421 39.9549 11.567C39.9549 12.085 40.7632 12.4169 42.3795 12.5616L44.959 12.8102C45.5389 12.852 46.3986 12.9345 47.5388 13.0587C49.6933 13.3491 51.2474 13.9189 52.2005 14.7682C53.3399 15.8047 53.91 17.1823 53.91 18.9021C53.91 23.626 50.3981 25.9882 43.3737 25.9882Z" fill="white"/>
<path d="M61.1515 25.3977H57.422C56.945 25.3977 56.5155 25.2369 56.1323 24.9159C55.7483 24.5945 55.5571 24.1962 55.5571 23.7194V8.30355C55.5571 7.8479 55.7483 7.45947 56.1323 7.13806C56.5155 6.81705 56.945 6.65624 57.422 6.65624H61.1515C61.6281 6.65624 62.0576 6.81705 62.4416 7.13806C62.8248 7.45947 63.0166 7.8479 63.0166 8.30355V23.7194C63.0166 24.1962 62.8248 24.5945 62.4416 24.9159C62.0576 25.2369 61.6281 25.3977 61.1515 25.3977ZM61.1515 5.59379H57.422C56.945 5.59379 56.5155 5.43963 56.1323 5.1307C55.7483 4.82176 55.5571 4.43031 55.5571 3.95635V1.94778C55.5571 1.49475 55.7483 1.10873 56.1323 0.789129C56.5155 0.470135 56.945 0.310335 57.422 0.310335H61.1515C61.6281 0.310335 62.0576 0.470135 62.4416 0.789129C62.8248 1.10873 63.0166 1.49475 63.0166 1.94778V3.95635C63.0166 4.43031 62.8298 4.82176 62.4569 5.1307C62.084 5.43963 61.6491 5.59379 61.1515 5.59379Z" fill="white"/>
<path d="M86.0158 27.2625C84.4407 29.9558 81.0119 31.3028 75.7282 31.3028C73.2829 31.3028 71.2005 30.9611 69.4809 30.2772C67.0359 29.324 65.8134 27.8011 65.8134 25.7086C65.8134 24.6308 66.3729 24.0923 67.4917 24.0923H70.8485C71.2836 24.0923 71.6568 24.2891 71.9673 24.6828C72.423 25.2423 72.7756 25.5943 73.0243 25.7396C73.6663 26.1125 74.5782 26.2989 75.7594 26.2989C77.3753 26.2989 78.5044 26.133 79.147 25.8018C80.0795 25.3045 80.5458 24.3201 80.5458 22.8491V22.6627C78.7429 23.7815 76.8676 24.341 74.9202 24.341C71.9156 24.341 69.4292 23.5746 67.4609 22.041C65.3056 20.3625 64.2285 18.0628 64.2285 15.1411C64.2285 12.1993 65.2954 9.88861 67.4297 8.21031C69.3771 6.65639 71.8431 5.87932 74.8268 5.87932C76.9605 5.87932 78.9188 6.44929 80.7012 7.58862C81.1153 6.78056 81.6227 6.37643 82.2241 6.37643H85.4563C85.912 6.37643 86.3058 6.54247 86.6375 6.87375C86.9686 7.20562 87.1346 7.58862 87.1346 8.02374V21.3884C87.1346 23.9991 86.7617 25.9571 86.0158 27.2625Z" fill="white"/>
<path d="M105.316 25.3977C104.86 25.3977 104.467 25.2369 104.135 24.9159C103.804 24.5945 103.638 24.1962 103.638 23.7194V16.2911C103.638 14.7167 103.483 13.6289 103.172 13.0277C102.695 12.1369 101.752 11.6911 100.343 11.6911C97.2559 11.6911 95.7124 13.173 95.7124 16.1358V23.7194C95.7124 24.1753 95.5464 24.5687 95.2153 24.9004C94.8836 25.2315 94.4897 25.3977 94.0341 25.3977H90.7707C90.3146 25.3977 89.921 25.2315 89.5897 24.9004C89.258 24.5687 89.0924 24.1753 89.0924 23.7194V2.30502C89.0924 1.86989 89.258 1.4867 89.5897 1.15502C89.921 0.82395 90.3146 0.657709 90.7707 0.657709H94.0341C94.4897 0.657709 94.8836 0.82395 95.2153 1.15502C95.5464 1.4867 95.7124 1.86989 95.7124 2.30502V8.73867C97.8673 7.06037 100.002 6.22112 102.115 6.22112C105.119 6.22112 107.253 6.96699 108.518 8.45892C109.678 9.82648 110.258 12.054 110.258 15.1411V23.7194C110.258 24.1753 110.092 24.5687 109.761 24.9004C109.429 25.2315 109.035 25.3977 108.58 25.3977H105.316Z" fill="white"/>
<path d="M120.421 25.9882C118.39 25.9882 116.857 25.7091 115.821 25.151C114.412 24.4065 113.708 23.0836 113.708 21.1813V11.8777H112.714C112.257 11.8777 111.859 11.7165 111.517 11.3931C111.175 11.0703 111.004 10.6692 111.004 10.1898V8.25104C111.004 7.79277 111.175 7.40233 111.517 7.07891C111.859 6.75589 112.257 6.59407 112.714 6.59407H113.708V3.57941C113.708 3.14429 113.879 2.76109 114.221 2.42942C114.563 2.09814 114.961 1.9321 115.417 1.9321H118.836C119.292 1.9321 119.691 2.09814 120.033 2.42942C120.375 2.76109 120.546 3.14429 120.546 3.57941V6.59407H123.125C123.581 6.59407 123.98 6.76112 124.322 7.0942C124.664 7.42789 124.835 7.8135 124.835 8.25104V10.1898C124.835 10.6692 124.664 11.0703 124.322 11.3931C123.98 11.7165 123.581 11.8777 123.125 11.8777H120.546V18.7845C120.546 19.4658 120.628 20.0543 120.794 20.5496C121.105 20.6118 121.467 20.6424 121.882 20.6424H123.125C123.581 20.6424 123.98 20.8084 124.322 21.1397C124.664 21.4714 124.835 21.8546 124.835 22.2897V24.3099C124.835 24.7656 124.664 25.1594 124.322 25.4909C123.98 25.8222 123.581 25.9882 123.125 25.9882H120.421Z" fill="white"/>
<path d="M135.464 25.9882C129.289 25.9882 125.736 24.1652 124.803 20.5182C124.762 20.3526 124.741 20.166 124.741 19.9587C124.741 18.9228 125.3 18.4048 126.419 18.4048H130.056C130.491 18.4048 130.884 18.6223 131.237 19.0575C131.692 19.6789 132.107 20.0937 132.48 20.3006C133.246 20.7356 134.396 20.9533 135.93 20.9533C136.593 20.9533 137.235 20.8708 137.857 20.7046C138.748 20.4977 139.193 20.1763 139.193 19.7411C139.193 19.3682 138.82 19.1094 138.075 18.9641C138.012 18.9437 137.826 18.9228 137.515 18.9021L131.796 18.4048C129.848 18.2389 128.295 17.6897 127.134 16.7575C125.808 15.6803 125.145 14.2196 125.145 12.375C125.145 7.96163 128.553 5.75502 135.371 5.75502C137.67 5.75502 139.649 6.06577 141.307 6.68746C143.524 7.53717 144.86 8.8838 145.316 10.7279C145.358 10.8521 145.378 11.0284 145.378 11.2562C145.378 12.2925 144.808 12.8102 143.669 12.8102H140.219C139.804 12.8102 139.432 12.6135 139.1 12.2197C138.603 11.6398 138.199 11.2669 137.888 11.1009C137.204 10.6865 136.272 10.4792 135.091 10.4792C133.06 10.4792 132.045 10.8421 132.045 11.567C132.045 12.085 132.853 12.4169 134.469 12.5616L137.049 12.8102C137.629 12.852 138.489 12.9345 139.629 13.0587C141.783 13.3491 143.337 13.9189 144.291 14.7682C145.43 15.8047 146 17.1823 146 18.9021C146 23.626 142.488 25.9882 135.464 25.9882Z" fill="white"/>
<path d="M5.95328 5.28369H2.22395C1.74696 5.28369 1.31728 5.12933 0.934079 4.82039C0.550479 4.51166 0.359081 4.12021 0.359081 3.64625V1.63768C0.359081 1.18464 0.550479 0.798428 0.934079 0.47903C1.31728 0.159832 1.74696 3.24249e-05 2.22395 3.24249e-05H5.95328C6.43007 3.24249e-05 6.85975 0.159832 7.24315 0.47903C7.62675 0.798428 7.81835 1.18464 7.81835 1.63768V3.64625C7.81835 4.12021 7.63158 4.51166 7.25905 4.82039C6.88572 5.12933 6.4508 5.28369 5.95328 5.28369Z" fill="white"/>
<path d="M176.62 43.5038C176.62 46.1988 175.277 48.8032 172.769 51.2108C170.259 53.6194 166.609 55.806 162.066 57.6503C152.983 61.3382 140.409 63.6278 126.5 63.6278C112.591 63.6278 100.017 61.3382 90.9339 57.6503C86.3914 55.806 82.7406 53.6194 80.2315 51.2108C77.7234 48.8032 76.3797 46.1988 76.3797 43.5038C76.3797 40.8087 77.7234 38.2043 80.2315 35.7967C82.7406 33.3881 86.3914 31.2015 90.9339 29.3572C100.017 25.6693 112.591 23.3797 126.5 23.3797C140.409 23.3797 152.983 25.6693 162.066 29.3572C166.609 31.2015 170.259 33.3881 172.769 35.7967C175.277 38.2043 176.62 40.8087 176.62 43.5038Z" fill="#BBFF00" stroke="#383838" stroke-width="0.759398"/>
<path d="M173.583 43.5038C173.583 45.7649 172.339 47.9666 169.983 50.0159C167.629 52.0644 164.2 53.9265 159.93 55.4979C151.393 58.6395 139.574 60.5902 126.5 60.5902C113.426 60.5902 101.607 58.6395 93.0701 55.4979C88.8001 53.9265 85.3711 52.0644 83.0167 50.0159C80.6613 47.9666 79.4173 45.7649 79.4173 43.5038C79.4173 41.2426 80.6613 39.0409 83.0167 36.9916C85.3711 34.9431 88.8001 33.081 93.0701 31.5097C101.607 28.368 113.426 26.4173 126.5 26.4173C139.574 26.4173 151.393 28.368 159.93 31.5097C164.2 33.081 167.629 34.9431 169.983 36.9916C172.339 39.0409 173.583 41.2426 173.583 43.5038Z" stroke="#383838" stroke-width="0.759398"/>
<path d="M100.443 36.4697C100.396 36.8082 100.35 37.2109 100.303 37.6777C100.256 38.1446 100.21 38.5999 100.163 39.0434C100.128 39.4753 100.099 39.8079 100.075 40.0414C100.064 40.1698 100.04 40.3974 100.005 40.7242C99.9821 41.0394 99.9471 41.3895 99.9004 41.7747C99.8654 42.1482 99.8187 42.4925 99.7603 42.8077H99.7778C99.9762 42.4225 100.186 42.1015 100.408 41.8447C100.63 41.5763 100.857 41.3662 101.091 41.2144C101.324 41.051 101.546 40.9343 101.756 40.8643C101.978 40.7826 102.182 40.7417 102.369 40.7417C102.964 40.7417 103.443 40.8993 103.805 41.2144C104.178 41.5296 104.447 41.9439 104.61 42.4575C104.785 42.9594 104.873 43.5022 104.873 44.0858C104.873 44.8678 104.785 45.609 104.61 46.3094C104.435 47.0097 104.161 47.6283 103.787 48.1652C103.414 48.7022 102.923 49.1224 102.317 49.4259C101.721 49.7293 100.992 49.8811 100.128 49.8811C99.9412 49.8811 99.6844 49.8636 99.3576 49.8285C99.0308 49.8052 98.6865 49.7585 98.3246 49.6885C97.9628 49.6184 97.6301 49.5251 97.3266 49.4083C97.3617 48.4746 97.3967 47.6283 97.4317 46.8696C97.4667 46.0993 97.5017 45.3581 97.5367 44.6461C97.5834 43.9224 97.6301 43.1812 97.6768 42.4225C97.7235 41.6521 97.776 40.8059 97.8344 39.8838C97.8461 39.6854 97.8636 39.4344 97.8869 39.1309C97.9103 38.8158 97.9394 38.5298 97.9745 38.273C97.7877 38.2847 97.5718 38.2964 97.3266 38.308C97.0815 38.308 96.8948 38.3139 96.7664 38.3256L96.8364 36.9949C97.3733 36.9949 97.8227 36.9657 98.1846 36.9074C98.5464 36.849 98.8324 36.779 99.0425 36.6973C99.2642 36.6156 99.416 36.5397 99.4977 36.4697H100.443ZM101.669 42.3525C101.447 42.3525 101.231 42.4634 101.021 42.6851C100.811 42.8952 100.618 43.1929 100.443 43.5781C100.268 43.9632 100.11 44.4185 99.9704 44.9437C99.842 45.469 99.737 46.0409 99.6553 46.6595C99.5736 47.2665 99.5269 47.9026 99.5152 48.5679C99.6086 48.6146 99.7428 48.6555 99.9179 48.6905C100.105 48.7138 100.256 48.7255 100.373 48.7255C100.758 48.7255 101.073 48.6205 101.319 48.4104C101.575 48.1886 101.78 47.9026 101.931 47.5525C102.095 47.1906 102.211 46.7996 102.282 46.3794C102.363 45.9475 102.416 45.5273 102.439 45.1188C102.462 44.6986 102.474 44.3251 102.474 43.9983C102.474 43.368 102.387 42.9361 102.211 42.7026C102.048 42.4692 101.867 42.3525 101.669 42.3525ZM110.015 40.7417C110.669 40.7417 111.258 40.8934 111.783 41.1969C112.32 41.5004 112.746 41.9439 113.061 42.5276C113.376 43.1112 113.534 43.8173 113.534 44.6461C113.534 45.5682 113.353 46.4319 112.991 47.2373C112.641 48.031 112.139 48.673 111.486 49.1632C110.832 49.6418 110.05 49.8811 109.139 49.8811C108.357 49.8811 107.704 49.706 107.179 49.3558C106.653 48.994 106.262 48.5096 106.005 47.9026C105.749 47.2957 105.62 46.6304 105.62 45.9067C105.62 44.9729 105.795 44.115 106.146 43.3329C106.507 42.5509 107.015 41.9264 107.669 41.4596C108.334 40.981 109.116 40.7417 110.015 40.7417ZM109.752 41.8973C109.402 41.8856 109.093 42.0432 108.824 42.37C108.568 42.6851 108.363 43.1112 108.212 43.6481C108.071 44.185 108.001 44.7745 108.001 45.4164C108.001 45.7666 108.019 46.1343 108.054 46.5195C108.101 46.9046 108.176 47.2665 108.282 47.605C108.398 47.9318 108.544 48.2003 108.719 48.4104C108.906 48.6205 109.139 48.7255 109.42 48.7255C109.723 48.7255 109.98 48.6088 110.19 48.3754C110.4 48.1419 110.569 47.8443 110.698 47.4824C110.838 47.1089 110.937 46.7179 110.995 46.3094C111.065 45.9008 111.106 45.5157 111.118 45.1538C111.13 44.8387 111.118 44.4943 111.083 44.1208C111.048 43.7473 110.984 43.3913 110.89 43.0528C110.797 42.7143 110.657 42.44 110.47 42.2299C110.283 42.0081 110.044 41.8973 109.752 41.8973ZM118.675 40.7417C119.329 40.7417 119.918 40.8934 120.444 41.1969C120.981 41.5004 121.407 41.9439 121.722 42.5276C122.037 43.1112 122.195 43.8173 122.195 44.6461C122.195 45.5682 122.014 46.4319 121.652 47.2373C121.302 48.031 120.8 48.673 120.146 49.1632C119.492 49.6418 118.71 49.8811 117.8 49.8811C117.018 49.8811 116.364 49.706 115.839 49.3558C115.314 48.994 114.923 48.5096 114.666 47.9026C114.409 47.2957 114.281 46.6304 114.281 45.9067C114.281 44.9729 114.456 44.115 114.806 43.3329C115.168 42.5509 115.676 41.9264 116.329 41.4596C116.995 40.981 117.777 40.7417 118.675 40.7417ZM118.413 41.8973C118.063 41.8856 117.753 42.0432 117.485 42.37C117.228 42.6851 117.024 43.1112 116.872 43.6481C116.732 44.185 116.662 44.7745 116.662 45.4164C116.662 45.7666 116.679 46.1343 116.714 46.5195C116.761 46.9046 116.837 47.2665 116.942 47.605C117.059 47.9318 117.205 48.2003 117.38 48.4104C117.566 48.6205 117.8 48.7255 118.08 48.7255C118.384 48.7255 118.64 48.6088 118.85 48.3754C119.061 48.1419 119.23 47.8443 119.358 47.4824C119.498 47.1089 119.597 46.7179 119.656 46.3094C119.726 45.9008 119.767 45.5157 119.778 45.1538C119.79 44.8387 119.778 44.4943 119.743 44.1208C119.708 43.7473 119.644 43.3913 119.551 43.0528C119.457 42.7143 119.317 42.44 119.131 42.2299C118.944 42.0081 118.705 41.8973 118.413 41.8973ZM128.929 49.8811C128.416 49.8811 127.995 49.7177 127.668 49.3908C127.342 49.064 127.021 48.4746 126.706 47.6225C126.589 47.3073 126.484 47.0272 126.39 46.7821C126.297 46.537 126.186 46.3736 126.058 46.2919C126.011 46.2568 125.959 46.2335 125.9 46.2218C125.853 46.1985 125.801 46.1985 125.743 46.2218C125.673 46.5486 125.62 46.9397 125.585 47.3949C125.55 47.8384 125.532 48.2119 125.532 48.5154C125.532 48.6672 125.538 48.8597 125.55 49.0932C125.562 49.3266 125.573 49.5251 125.585 49.6885H123.309C123.286 49.4434 123.268 49.2683 123.256 49.1632C123.256 49.0582 123.256 48.9473 123.256 48.8306C123.256 48.7022 123.262 48.4395 123.274 48.0427C123.297 47.6342 123.326 47.1323 123.361 46.537C123.396 45.9417 123.443 45.2822 123.501 44.5585C123.56 43.8232 123.624 43.0586 123.694 42.2649C123.776 41.4712 123.869 40.6833 123.974 39.9013C123.998 39.6679 124.033 39.4052 124.079 39.1134C124.138 38.81 124.19 38.5298 124.237 38.273C124.05 38.2847 123.822 38.2964 123.554 38.308C123.297 38.308 123.105 38.3139 122.976 38.3256L123.046 36.9949C123.595 36.9949 124.05 36.9657 124.412 36.9074C124.774 36.849 125.06 36.779 125.27 36.6973C125.492 36.6156 125.643 36.5397 125.725 36.4697H126.671C126.612 36.8899 126.548 37.3276 126.478 37.7828C126.42 38.2263 126.361 38.6816 126.303 39.1484C126.244 39.6037 126.186 40.0764 126.128 40.5666C126.081 41.0452 126.023 41.4654 125.953 41.8272C125.894 42.1891 125.836 42.5276 125.778 42.8427H125.795C126.052 42.3291 126.338 41.9206 126.653 41.6171C126.98 41.302 127.307 41.0802 127.633 40.9518C127.972 40.8117 128.293 40.7417 128.596 40.7417C129.028 40.7417 129.384 40.8176 129.664 40.9693C129.945 41.1211 130.149 41.337 130.277 41.6171C130.417 41.8856 130.487 42.2124 130.487 42.5976C130.487 42.9478 130.382 43.3388 130.172 43.7707C129.974 44.2025 129.629 44.6052 129.139 44.9787C128.661 45.3522 128.001 45.6265 127.161 45.8016V45.8191C127.651 45.8308 128.001 45.9592 128.211 46.2043C128.433 46.4378 128.591 46.677 128.684 46.9222C128.801 47.1673 128.9 47.3832 128.982 47.57C129.075 47.7567 129.163 47.9026 129.244 48.0077C129.338 48.1011 129.431 48.1477 129.524 48.1477C129.653 48.1477 129.775 48.0602 129.892 47.8851C130.02 47.71 130.149 47.3949 130.277 46.9397L131.223 47.2373C131.141 47.6575 130.995 48.0719 130.785 48.4804C130.587 48.8773 130.33 49.2099 130.015 49.4784C129.711 49.7468 129.349 49.8811 128.929 49.8811ZM125.865 45.1013C126.729 45.1013 127.365 44.8854 127.774 44.4535C128.182 44.0099 128.386 43.4147 128.386 42.6676C128.386 42.5159 128.369 42.3817 128.334 42.2649C128.31 42.1482 128.264 42.0607 128.194 42.0023C128.124 41.9323 128.036 41.8973 127.931 41.8973C127.744 41.8973 127.511 42.0198 127.231 42.2649C126.962 42.5101 126.7 42.8719 126.443 43.3505C126.198 43.829 126.005 44.4126 125.865 45.1013ZM133.894 40.7417C134.501 40.7417 134.921 40.9285 135.155 41.302C135.4 41.6638 135.522 42.154 135.522 42.7727C135.522 43.0528 135.493 43.4322 135.435 43.9107C135.376 44.3893 135.312 44.8912 135.242 45.4164C135.172 45.9417 135.108 46.4203 135.05 46.8521C134.991 47.284 134.962 47.5991 134.962 47.7976C134.962 47.9843 134.991 48.1069 135.05 48.1652C135.108 48.2236 135.166 48.2528 135.225 48.2528C135.365 48.2528 135.505 48.1536 135.645 47.9551C135.785 47.7567 135.931 47.3949 136.083 46.8696L137.028 47.1498C136.981 47.3949 136.888 47.675 136.748 47.9902C136.62 48.3053 136.444 48.6088 136.223 48.9006C136.001 49.1807 135.732 49.4142 135.417 49.6009C135.114 49.7877 134.764 49.8811 134.367 49.8811C133.725 49.8811 133.281 49.706 133.036 49.3558C132.803 49.0057 132.686 48.5213 132.686 47.9026C132.686 47.5641 132.715 47.1614 132.774 46.6945C132.832 46.2277 132.896 45.7491 132.966 45.2589C133.048 44.7686 133.118 44.3134 133.176 43.8932C133.235 43.4613 133.264 43.1053 133.264 42.8252C133.264 42.6268 133.235 42.5042 133.176 42.4575C133.118 42.3992 133.054 42.37 132.984 42.37C132.855 42.37 132.721 42.4692 132.581 42.6676C132.441 42.8661 132.295 43.2279 132.143 43.7531L131.198 43.473C131.244 43.2279 131.338 42.9478 131.478 42.6326C131.618 42.3175 131.799 42.0198 132.021 41.7397C132.254 41.4479 132.523 41.2086 132.826 41.0218C133.141 40.8351 133.497 40.7417 133.894 40.7417ZM134.507 36.3296C134.892 36.3296 135.201 36.4697 135.435 36.7498C135.68 37.0299 135.791 37.3743 135.767 37.7828C135.756 38.1797 135.622 38.5181 135.365 38.7983C135.108 39.0667 134.787 39.201 134.402 39.201C134.005 39.201 133.684 39.0667 133.439 38.7983C133.205 38.5181 133.095 38.1797 133.106 37.7828C133.13 37.3743 133.281 37.0299 133.561 36.7498C133.842 36.4697 134.157 36.3296 134.507 36.3296ZM144.762 49.8811C144.12 49.8811 143.683 49.706 143.449 49.3558C143.227 49.0057 143.117 48.5213 143.117 47.9026C143.117 47.5525 143.14 47.1614 143.187 46.7296C143.233 46.286 143.28 45.8366 143.327 45.3814C143.385 44.9262 143.438 44.5002 143.484 44.1033C143.531 43.6948 143.554 43.3563 143.554 43.0878C143.554 42.9127 143.537 42.7727 143.502 42.6676C143.467 42.5509 143.414 42.4692 143.344 42.4225C143.274 42.3758 143.181 42.3525 143.064 42.3525C142.854 42.3525 142.632 42.4809 142.399 42.7377C142.177 42.9944 141.961 43.3446 141.751 43.7882C141.541 44.22 141.354 44.7044 141.191 45.2414C141.027 45.7666 140.893 46.3094 140.788 46.8696C140.695 47.4182 140.648 47.9376 140.648 48.4279C140.648 48.5796 140.654 48.7956 140.665 49.0757C140.677 49.3441 140.689 49.5484 140.7 49.6885H138.442C138.419 49.4434 138.401 49.2741 138.389 49.1807C138.389 49.0757 138.389 48.9648 138.389 48.8481C138.389 48.603 138.401 48.317 138.424 47.9902C138.459 47.6517 138.5 47.2898 138.547 46.9046C138.594 46.5078 138.64 46.1168 138.687 45.7316C138.722 45.4164 138.757 45.113 138.792 44.8212C138.839 44.5177 138.88 44.2375 138.915 43.9808C138.95 43.7123 138.973 43.4788 138.985 43.2804C139.008 43.082 139.02 42.9303 139.02 42.8252C139.02 42.6268 138.99 42.5042 138.932 42.4575C138.885 42.3992 138.833 42.37 138.775 42.37C138.646 42.37 138.512 42.4692 138.372 42.6676C138.232 42.8661 138.086 43.2279 137.934 43.7531L136.971 43.473C137.03 43.2279 137.111 42.9478 137.216 42.6326C137.321 42.3175 137.467 42.0198 137.654 41.7397C137.841 41.4479 138.068 41.2086 138.337 41.0218C138.605 40.8351 138.932 40.7417 139.317 40.7417C139.574 40.7417 139.813 40.7884 140.035 40.8818C140.257 40.9752 140.438 41.1386 140.578 41.372C140.718 41.5938 140.788 41.9148 140.788 42.335C140.788 42.5567 140.776 42.7377 140.753 42.8777C140.73 43.0178 140.706 43.187 140.683 43.3855H140.7C140.981 42.6851 141.284 42.1424 141.611 41.7572C141.949 41.372 142.294 41.1094 142.644 40.9693C143.006 40.8176 143.356 40.7417 143.694 40.7417C144.196 40.7417 144.599 40.8526 144.902 41.0744C145.206 41.2961 145.428 41.6113 145.568 42.0198C145.72 42.4167 145.795 42.8894 145.795 43.438C145.795 43.8582 145.76 44.3251 145.69 44.8387C145.62 45.3522 145.544 45.8658 145.463 46.3794C145.393 46.893 145.358 47.3657 145.358 47.7976C145.358 47.9843 145.387 48.1069 145.445 48.1652C145.504 48.2236 145.562 48.2528 145.62 48.2528C145.749 48.2528 145.883 48.1536 146.023 47.9551C146.163 47.7567 146.309 47.3949 146.461 46.8696L147.406 47.1498C147.359 47.3949 147.266 47.675 147.126 47.9902C146.998 48.3053 146.823 48.6088 146.601 48.9006C146.379 49.1807 146.116 49.4142 145.813 49.6009C145.509 49.7877 145.159 49.8811 144.762 49.8811ZM150.354 54.4332C149.922 54.4332 149.531 54.3924 149.181 54.3107C148.83 54.2406 148.527 54.1298 148.27 53.978C148.025 53.8263 147.832 53.6337 147.692 53.4002C147.564 53.1785 147.5 52.9217 147.5 52.6299C147.5 52.4548 147.541 52.268 147.622 52.0696C147.704 51.8712 147.827 51.7019 147.99 51.5619C148.165 51.4218 148.393 51.3518 148.673 51.3518C148.988 51.3518 149.251 51.451 149.461 51.6494C149.671 51.8478 149.776 52.1163 149.776 52.4548C149.776 52.6416 149.741 52.8166 149.671 52.98C149.729 53.0618 149.852 53.1318 150.039 53.1901C150.225 53.2485 150.383 53.2777 150.511 53.2777C150.978 53.2777 151.34 53.1435 151.597 52.875C151.854 52.6182 152.04 52.2622 152.157 51.807C152.285 51.3518 152.385 50.8382 152.455 50.2663C152.536 49.6476 152.618 49.1107 152.7 48.6555C152.793 48.2003 152.91 47.7392 153.05 47.2723H153.032C152.811 47.7859 152.583 48.2119 152.35 48.5504C152.116 48.8889 151.871 49.1574 151.614 49.3558C151.369 49.5426 151.112 49.6768 150.844 49.7585C150.587 49.8402 150.325 49.8811 150.056 49.8811C149.636 49.8811 149.239 49.7702 148.865 49.5484C148.504 49.315 148.206 48.9648 147.973 48.4979C147.751 48.0193 147.64 47.4182 147.64 46.6945C147.64 45.8892 147.733 45.1305 147.92 44.4185C148.118 43.6948 148.422 43.0586 148.83 42.5101C149.251 41.9615 149.782 41.5296 150.424 41.2144C151.066 40.8993 151.83 40.7417 152.717 40.7417C153.044 40.7417 153.453 40.7767 153.943 40.8468C154.445 40.9051 154.929 40.9927 155.396 41.1094C155.373 41.5296 155.338 42.0782 155.291 42.7552C155.256 43.4205 155.209 44.1383 155.151 44.9087C155.104 45.6791 155.052 46.4261 154.993 47.1498C154.935 47.8618 154.883 48.4746 154.836 48.9881C154.742 50.0853 154.532 51.0425 154.206 51.8595C153.89 52.6766 153.418 53.3069 152.787 53.7504C152.169 54.2056 151.358 54.4332 150.354 54.4332ZM150.774 48.3228C151.031 48.3228 151.27 48.1944 151.492 47.9376C151.714 47.6692 151.912 47.3132 152.087 46.8696C152.274 46.4144 152.437 45.9125 152.577 45.3639C152.717 44.8036 152.834 44.2375 152.927 43.6656C153.021 43.082 153.079 42.5276 153.103 42.0023C153.032 41.979 152.916 41.9556 152.752 41.9323C152.601 41.9089 152.449 41.8973 152.297 41.8973C151.9 41.8973 151.556 42.0081 151.264 42.2299C150.972 42.44 150.733 42.7552 150.546 43.1754C150.371 43.5956 150.237 44.1091 150.144 44.7161C150.062 45.3114 150.021 46.0001 150.021 46.7821C150.021 47.0972 150.05 47.3715 150.109 47.605C150.179 47.8384 150.272 48.0193 150.389 48.1477C150.505 48.2645 150.634 48.3228 150.774 48.3228Z" fill="black"/>
</svg>
